<?xml version="1.0" encoding="UTF-8" standalone="no"?>
<!DOCTYPE svg PUBLIC "-//W3C//DTD SVG 1.1//EN" "http://www.w3.org/Graphics/SVG/1.1/DTD/svg11.dtd">
<svg width="100%" height="100%" viewBox="0 0 1223 256" version="1.1" xmlns="http://www.w3.org/2000/svg" xmlns:xlink="http://www.w3.org/1999/xlink" xml:space="preserve" xmlns:serif="http://www.serif.com/" style="fill-rule:evenodd;clip-rule:evenodd;stroke-linejoin:round;stroke-miterlimit:2;">
    <g transform="matrix(1,0,0,1,355.689,213.941)">
        <path d="M51.717,-173.034C62.35,-173.034 71.09,-172.188 77.938,-170.496C84.785,-168.804 89.9,-166.347 93.283,-163.125C97.472,-158.775 100.211,-152.653 101.5,-144.759C102.145,-141.053 102.467,-134.528 102.467,-125.184L102.467,-95.942C102.467,-77.736 98.922,-65.089 91.833,-58C87.322,-53.811 81.12,-51.233 73.225,-50.267C72.258,-50.106 70.245,-49.985 67.183,-49.904C64.122,-49.824 59.933,-49.783 54.617,-49.783L48.817,-49.783L48.817,0L11.117,0L11.117,-173.034L51.717,-173.034ZM49.058,-77.817C55.02,-77.817 58.403,-78.139 59.208,-78.783C62.592,-80.717 64.283,-88.611 64.283,-102.467L64.283,-121.075C64.283,-133.32 63.478,-140.489 61.867,-142.584C60.417,-144.517 58.403,-145.484 55.825,-145.484L49.058,-145.484L49.058,-77.817Z" style="fill:rgb(241,255,253);fill-rule:nonzero;"/>
        <path d="M154.667,-173.034L154.667,-103.192L168.442,-103.192L168.442,-173.034L206.384,-173.034L206.384,0L168.442,0L168.442,-74.917L154.667,-74.917L154.667,0L117.45,0L117.45,-173.034L154.667,-173.034Z" style="fill:rgb(241,255,253);fill-rule:nonzero;"/>
        <path d="M259.55,-173.034L259.55,-52.683C259.55,-37.7 261,-29.403 263.9,-27.792C265.995,-26.503 267.928,-26.503 269.7,-27.792C271.795,-29.242 272.842,-37.217 272.842,-51.717L272.842,-173.034L311.509,-173.034L311.509,-52.442C311.509,-41.808 310.703,-33.592 309.092,-27.792C306.192,-16.836 300.634,-9.183 292.417,-4.833C289.195,-3.061 285.449,-1.772 281.18,-0.967C276.91,-0.161 272.117,0.242 266.8,0.242C255.2,0.242 246.259,-1.611 239.975,-5.317C231.275,-10.472 225.798,-17.803 223.542,-27.308C222.575,-31.336 222.092,-39.875 222.092,-52.925L222.092,-173.034L259.55,-173.034Z" style="fill:rgb(241,255,253);fill-rule:nonzero;"/>
        <path d="M367.092,-172.55L367.092,-26.825L396.576,-26.825L396.576,0L328.909,0L328.909,-172.55L367.092,-172.55Z" style="fill:rgb(241,255,253);fill-rule:nonzero;"/>
        <path d="M445.392,-172.55L445.392,-26.825L474.876,-26.825L474.876,0L407.209,0L407.209,-172.55L445.392,-172.55Z" style="fill:rgb(241,255,253);fill-rule:nonzero;"/>
        <path d="M622.776,-173.034L655.643,0L618.909,0L617.459,-13.05L599.334,-13.05L599.334,0L561.876,0L588.942,-173.034L622.776,-173.034ZM614.318,-41.567L608.034,-114.308L601.992,-41.567L614.318,-41.567Z" style="fill:rgb(241,255,253);fill-rule:nonzero;"/>
        <path d="M708.809,-173.034C719.443,-173.034 728.183,-172.188 735.03,-170.496C741.877,-168.804 746.993,-166.347 750.376,-163.125C754.565,-158.775 757.304,-152.653 758.593,-144.759C759.237,-141.053 759.559,-134.528 759.559,-125.184L759.559,-95.942C759.559,-77.736 756.015,-65.089 748.926,-58C744.415,-53.811 738.212,-51.233 730.318,-50.267C729.351,-50.106 727.337,-49.985 724.276,-49.904C721.215,-49.824 717.026,-49.783 711.709,-49.783L705.909,-49.783L705.909,0L668.209,0L668.209,-173.034L708.809,-173.034ZM706.151,-77.817C712.112,-77.817 715.495,-78.139 716.301,-78.783C719.684,-80.717 721.376,-88.611 721.376,-102.467L721.376,-121.075C721.376,-133.32 720.57,-140.489 718.959,-142.584C717.509,-144.517 715.495,-145.484 712.918,-145.484L706.151,-145.484L706.151,-77.817Z" style="fill:rgb(241,255,253);fill-rule:nonzero;"/>
        <path d="M816.109,-173.034C826.743,-173.034 835.483,-172.188 842.33,-170.496C849.178,-168.804 854.293,-166.347 857.676,-163.125C861.865,-158.775 864.604,-152.653 865.893,-144.759C866.537,-141.053 866.86,-134.528 866.86,-125.184L866.86,-95.942C866.86,-77.736 863.315,-65.089 856.226,-58C851.715,-53.811 845.512,-51.233 837.618,-50.267C836.651,-50.106 834.637,-49.985 831.576,-49.904C828.515,-49.824 824.326,-49.783 819.009,-49.783L813.209,-49.783L813.209,0L775.509,0L775.509,-173.034L816.109,-173.034ZM813.451,-77.817C819.412,-77.817 822.796,-78.139 823.601,-78.783C826.984,-80.717 828.676,-88.611 828.676,-102.467L828.676,-121.075C828.676,-133.32 827.871,-140.489 826.259,-142.584C824.809,-144.517 822.796,-145.484 820.218,-145.484L813.451,-145.484L813.451,-77.817Z" style="fill:rgb(241,255,253);fill-rule:nonzero;"/>
    </g>
    <g>
        <path d="M37.952,101.772C29.263,90.744 25.011,76.272 27.366,61.337C31.847,32.917 58.563,13.516 86.99,18.039C101.928,20.416 114.384,28.929 122.192,40.597C129.983,28.941 142.427,20.446 157.361,18.091C185.781,13.611 212.527,33.052 217.05,61.478C219.426,76.416 215.197,90.882 206.523,101.897C220.028,105.721 231.97,114.943 238.845,128.422C251.929,154.072 241.742,185.489 216.111,198.535C202.642,205.39 187.571,205.817 174.403,200.956C174.958,214.976 169.895,229.171 159.21,239.856C138.876,260.189 105.835,260.165 85.471,239.801C74.77,229.1 69.685,214.898 70.22,200.879C57.059,205.72 41.988,205.271 28.508,198.395C2.858,185.311 -7.376,153.88 5.67,128.249C12.525,114.779 24.453,105.575 37.952,101.772Z" style="fill:rgb(54,54,54);"/>
        <ellipse cx="124.548" cy="124.498" rx="68.589" ry="67.374"/>
        <path d="M38.904,153.128C25.392,149.314 13.446,140.105 6.573,126.638C-6.507,101.013 3.704,69.613 29.36,56.564C42.842,49.706 57.923,49.272 71.099,54.122C70.55,40.112 75.624,25.925 86.322,15.242C106.681,-5.087 139.745,-5.08 160.113,15.259C170.816,25.947 175.897,40.137 175.355,54.146C188.528,49.302 203.61,49.743 217.095,56.607C242.757,69.668 252.982,101.072 239.914,126.692C233.046,140.155 221.105,149.359 207.595,153.167C216.285,164.182 220.532,178.642 218.168,193.567C213.669,221.969 186.924,241.371 158.479,236.865C143.532,234.498 131.071,225.997 123.264,214.341C115.461,225.994 103.004,234.489 88.058,236.849C59.616,241.341 32.861,221.928 28.35,193.524C25.979,178.597 30.219,164.14 38.904,153.128ZM117.387,130.872L100.213,160.618C97.616,159.761 96.199,161.76 95.079,163.7C93.741,166.019 93.858,167.959 96.864,169.695C99.87,171.43 101.938,170.058 103.277,167.74C104.407,165.782 105.077,164.028 102.992,162.205L120.258,132.299L120.258,178.685C117.58,179.406 117.519,181.739 117.519,184.644C117.519,188.115 118.425,191.048 121.896,191.048C125.367,191.048 126.165,188.23 126.165,184.758C126.165,181.826 126.175,179.36 123.458,178.665L123.458,132.388L146.818,172.847C144.859,174.811 145.833,177.134 147.286,179.649C149.021,182.656 151.411,184.471 154.418,182.735C157.424,181 156.658,177.596 154.922,174.59C153.456,172.051 152.28,170.474 149.579,171.23L126.271,130.86L156.349,148.225C155.492,150.823 157.599,151.449 159.54,152.569C161.858,153.908 163.69,154.58 165.425,151.574C167.161,148.568 166.127,147.284 163.809,145.946C161.85,144.815 159.759,143.362 157.936,145.446L128.03,128.18L174.691,128.18C175.412,130.858 177.184,130.697 180.089,130.697C183.56,130.697 187.054,130.014 187.054,126.542C187.054,123.071 184.459,121.942 180.988,121.942C178.056,121.942 175.366,122.263 174.671,124.98L127.748,124.98L172.055,99.399C174.069,101.329 177.23,99.582 179.946,98.014C183.192,96.14 184.532,94.313 182.797,91.307C181.061,88.3 178.591,88.618 175.345,90.492C172.604,92.074 169.729,93.911 170.437,96.638L127.083,121.669L144.086,92.219C146.683,93.076 147.424,91.523 148.544,89.583C149.883,87.265 150.441,84.879 147.435,83.143C144.429,81.407 143.151,82.556 141.813,84.875C140.682,86.833 139.223,88.81 141.307,90.632L123.903,120.777L123.903,71.053C126.581,70.297 126.866,67.392 126.866,64.345C126.866,60.704 125.737,58.086 122.265,58.086C118.794,58.086 117.55,61.042 117.55,64.683C117.55,67.758 117.987,70.345 120.703,71.074L120.703,120.778L103.085,90.263C105.126,88.442 103.871,86.267 102.751,84.326C101.413,82.008 99.906,81.089 96.9,82.824C93.893,84.56 93.668,86.953 95.006,89.271C96.137,91.229 97.701,92.77 100.322,91.876L117.544,121.706L77.555,98.618C78.269,95.938 76.129,94.58 73.614,93.127C70.607,91.392 67.765,90.849 66.029,93.855C64.293,96.861 66.338,98.907 69.345,100.643C71.884,102.109 74.011,103.404 75.972,101.4L116.044,124.535L81.619,124.535C81.063,121.857 78.838,121.343 76.597,121.343C73.92,121.343 72.085,122.702 72.085,126.173C72.085,129.644 74.143,130.55 76.82,130.55C79.082,130.55 81.098,130.452 81.635,127.735L116.421,127.735L75.736,151.225C73.772,149.266 71.342,150.24 68.826,151.692C65.82,153.428 64.113,155.818 65.848,158.824C67.584,161.831 69.866,161.288 72.872,159.552C75.411,158.086 78.109,156.686 77.353,153.986L117.387,130.872Z" style="fill:rgb(241,255,253);"/>
    </g>
</svg>
