<?xml version="1.0" encoding="UTF-8" standalone="no"?><!DOCTYPE svg PUBLIC "-//W3C//DTD SVG 1.1//EN" "http://www.w3.org/Graphics/SVG/1.1/DTD/svg11.dtd"><svg width="100%" height="100%" viewBox="0 0 1025 1067" version="1.1" xmlns="http://www.w3.org/2000/svg" xmlns:xlink="http://www.w3.org/1999/xlink" xml:space="preserve" xmlns:serif="http://www.serif.com/" style="fill-rule:evenodd;clip-rule:evenodd;stroke-linejoin:round;stroke-miterlimit:2;"><g><g><g><path d="M158.159,424.05c-36.218,-45.94 -53.921,-106.247 -44.125,-168.458c18.682,-118.432 130,-199.27 248.445,-180.427c62.241,9.903 114.142,45.376 146.68,93.994c32.459,-48.57 84.308,-83.966 146.537,-93.773c118.414,-18.67 229.853,62.333 248.699,180.776c9.906,62.244 -7.719,122.518 -43.869,168.405c56.286,15.946 106.035,54.363 134.68,110.52c54.517,106.884 12.074,237.788 -94.732,292.132c-56.094,28.594 -118.892,30.372 -173.761,10.117c2.314,58.411 -18.812,117.541 -63.331,162.06c-84.735,84.735 -222.37,84.633 -307.231,-0.228c-44.585,-44.585 -65.79,-103.738 -63.536,-162.178c-54.838,20.174 -117.639,18.302 -173.802,-10.343c-106.89,-54.505 -149.528,-185.473 -95.167,-292.273c28.558,-56.118 78.282,-94.487 134.513,-110.323Z" style="fill:#363636;"/></g><g><ellipse cx="518.958" cy="518.746" rx="285.785" ry="280.722"/></g><g><path d="M162.142,638.029c-56.304,-15.878 -106.073,-54.262 -134.715,-110.349c-54.499,-106.794 -11.956,-237.625 94.944,-292.001c56.175,-28.572 119.015,-30.381 173.915,-10.173c-2.289,-58.372 18.853,-117.485 63.432,-161.996c84.825,-84.707 222.594,-84.675 307.459,0.069c44.6,44.534 65.769,103.656 63.495,162.028c54.909,-20.184 117.738,-18.345 173.92,10.25c106.93,54.427 149.536,185.278 95.071,292.022c-28.574,56.104 -78.333,94.455 -134.629,110.318c36.205,45.895 53.87,106.151 44.021,168.334c-18.746,118.358 -130.155,199.175 -248.689,180.401c-62.276,-9.863 -114.2,-45.255 -146.728,-93.859c-32.507,48.554 -84.414,83.953 -146.688,93.791c-118.513,18.733 -229.989,-62.16 -248.785,-180.516c-9.881,-62.186 7.793,-122.455 43.977,-168.318Zm327.012,-92.732l-71.56,123.952c-10.821,-3.57 -16.72,4.734 -21.394,12.853c-5.571,9.622 -5.083,17.715 7.439,24.971c12.529,7.215 21.146,1.493 26.724,-8.17c4.71,-8.155 7.493,-15.434 -1.186,-23.053l71.942,-124.605l-0.004,193.287c-11.156,3 -11.413,12.704 -11.412,24.812c-0.002,14.47 3.778,26.669 18.238,26.681c14.464,0.013 17.787,-11.737 17.789,-26.207c0.003,-12.234 0.041,-22.479 -11.28,-25.369l0.001,-192.836l97.331,168.597c-8.157,8.158 -4.1,17.828 1.953,28.321c7.246,12.538 17.201,20.105 29.715,12.848c12.508,-7.216 9.344,-21.385 2.119,-33.919c-6.139,-10.591 -11.016,-17.143 -22.288,-13.992l-97.107,-168.224l125.342,72.378c-3.573,10.824 5.188,13.393 13.274,18.091c9.678,5.583 17.309,8.352 24.531,-4.172c7.221,-12.512 2.913,-17.86 -6.724,-23.436c-8.168,-4.711 -16.884,-10.766 -24.471,-2.079l-124.625,-71.948l194.408,-0c3.007,11.158 10.421,10.493 22.505,10.487c14.449,-0.002 29.011,-2.847 29.02,-17.307c0.009,-14.464 -10.821,-19.171 -25.271,-19.168c-12.21,-0.002 -23.407,1.342 -26.34,12.656l-195.498,0.001l184.622,-106.585c8.36,8.036 21.553,0.76 32.855,-5.777c13.531,-7.809 19.13,-15.418 11.903,-27.94c-7.226,-12.526 -17.533,-11.206 -31.063,-3.401c-11.438,6.596 -23.382,14.251 -20.449,25.612l-180.639,104.297l70.843,-122.708c10.825,3.571 13.912,-2.901 18.58,-10.983c5.577,-9.659 7.9,-19.605 -4.626,-26.837c-12.522,-7.231 -17.848,-2.443 -23.425,7.216c-4.71,8.159 -10.793,16.397 -2.106,23.991l-72.518,125.602l-0.001,-207.18c11.159,-3.156 12.345,-15.257 12.344,-27.951c0.004,-15.174 -4.703,-26.082 -19.165,-26.082c-14.466,-0 -19.649,12.315 -19.647,27.486c-0.002,12.816 1.819,23.592 13.138,26.633l-0.003,207.099l-73.405,-127.148c8.506,-7.584 3.275,-16.651 -1.393,-24.735c-5.577,-9.658 -11.857,-13.487 -24.379,-6.257c-12.527,7.233 -13.468,17.201 -7.892,26.863c4.711,8.158 11.228,14.578 22.148,10.852l71.761,124.294l-166.623,-96.2c2.977,-11.168 -5.937,-16.828 -16.419,-22.879c-12.526,-7.232 -24.37,-9.492 -31.605,3.031c-7.231,12.527 1.292,21.053 13.814,28.284c10.583,6.11 19.446,11.504 27.618,3.151l166.963,96.401l-143.435,-0.001c-2.318,-11.162 -11.59,-13.302 -20.923,-13.303c-11.154,0.001 -18.806,5.661 -18.803,20.127c-0.001,14.461 8.578,18.237 19.732,18.236c9.421,0.003 17.822,-0.409 20.058,-11.727l144.943,-0.001l-169.52,97.878c-8.182,-8.172 -18.308,-4.123 -28.791,1.937c-12.531,7.254 -19.638,17.181 -12.409,29.716c7.233,12.536 16.736,10.286 29.267,3.032c10.576,-6.087 21.824,-11.941 18.673,-23.198l166.807,-96.295Z" style="fill:#f1fffd;"/></g></g></g></svg>