<?xml version="1.0" encoding="UTF-8" standalone="no"?>
<!DOCTYPE svg PUBLIC "-//W3C//DTD SVG 1.1//EN" "http://www.w3.org/Graphics/SVG/1.1/DTD/svg11.dtd">
<svg width="100%" height="100%" viewBox="0 0 5096 1067" version="1.1" xmlns="http://www.w3.org/2000/svg" xmlns:xlink="http://www.w3.org/1999/xlink" xml:space="preserve" xmlns:serif="http://www.serif.com/" style="fill-rule:evenodd;clip-rule:evenodd;stroke-linejoin:round;stroke-miterlimit:2;">
    <g transform="matrix(1,0,0,1,1482.038,891.421)">
        <path d="M215.486,-720.973C259.792,-720.973 296.21,-717.449 324.74,-710.4C353.27,-703.352 374.584,-693.114 388.681,-679.689C406.135,-661.564 417.547,-636.054 422.917,-603.161C425.603,-587.721 426.945,-560.533 426.945,-521.598L426.945,-399.758C426.945,-323.901 412.177,-271.204 382.639,-241.667C363.843,-224.213 337.998,-213.473 305.105,-209.445C301.077,-208.773 292.686,-208.27 279.931,-207.934C267.176,-207.599 249.723,-207.431 227.57,-207.431L203.403,-207.431L203.403,0L46.32,0L46.32,-720.973L215.486,-720.973ZM204.41,-324.237C229.248,-324.237 243.345,-325.579 246.702,-328.264C260.799,-336.32 267.848,-369.214 267.848,-426.945L267.848,-504.48C267.848,-555.499 264.491,-585.371 257.778,-594.098C251.737,-602.154 243.345,-606.181 232.605,-606.181L204.41,-606.181L204.41,-324.237Z" style="fill-rule:nonzero;"/>
        <path d="M644.445,-720.973L644.445,-429.966L701.841,-429.966L701.841,-720.973L859.932,-720.973L859.932,0L701.841,0L701.841,-312.153L644.445,-312.153L644.445,0L489.376,0L489.376,-720.973L644.445,-720.973Z" style="fill-rule:nonzero;"/>
        <path d="M1081.46,-720.973L1081.46,-219.514C1081.46,-157.084 1087.502,-122.512 1099.585,-115.799C1108.312,-110.428 1116.367,-110.428 1123.752,-115.799C1132.479,-121.84 1136.842,-155.07 1136.842,-215.486L1136.842,-720.973L1297.953,-720.973L1297.953,-218.507C1297.953,-174.202 1294.597,-139.965 1287.884,-115.799C1275.801,-70.151 1252.641,-38.264 1218.405,-20.139C1204.979,-12.755 1189.371,-7.384 1171.582,-4.028C1153.792,-0.671 1133.821,1.007 1111.668,1.007C1063.335,1.007 1026.078,-6.713 999.897,-22.153C963.647,-43.634 940.823,-74.178 931.425,-113.785C927.397,-130.567 925.383,-166.146 925.383,-220.521L925.383,-720.973L1081.46,-720.973Z" style="fill-rule:nonzero;"/>
        <path d="M1529.551,-718.959L1529.551,-111.771L1652.398,-111.771L1652.398,0L1370.454,0L1370.454,-718.959L1529.551,-718.959Z" style="fill-rule:nonzero;"/>
        <path d="M1855.801,-718.959L1855.801,-111.771L1978.649,-111.771L1978.649,0L1696.704,0L1696.704,-718.959L1855.801,-718.959Z" style="fill-rule:nonzero;"/>
        <path d="M2594.9,-720.973L2731.844,0L2578.789,0L2572.747,-54.375L2497.226,-54.375L2497.226,0L2341.149,0L2453.927,-720.973L2594.9,-720.973ZM2559.657,-173.195L2533.476,-476.285L2508.302,-173.195L2559.657,-173.195Z" style="fill-rule:nonzero;"/>
        <path d="M2953.373,-720.973C2997.678,-720.973 3034.096,-717.449 3062.626,-710.4C3091.156,-703.352 3112.47,-693.114 3126.567,-679.689C3144.021,-661.564 3155.433,-636.054 3160.803,-603.161C3163.489,-587.721 3164.831,-560.533 3164.831,-521.598L3164.831,-399.758C3164.831,-323.901 3150.063,-271.204 3120.526,-241.667C3101.729,-224.213 3075.884,-213.473 3042.991,-209.445C3038.963,-208.773 3030.572,-208.27 3017.817,-207.934C3005.063,-207.599 2987.609,-207.431 2965.456,-207.431L2941.289,-207.431L2941.289,0L2784.206,0L2784.206,-720.973L2953.373,-720.973ZM2942.296,-324.237C2967.134,-324.237 2981.231,-325.579 2984.588,-328.264C2998.685,-336.32 3005.734,-369.214 3005.734,-426.945L3005.734,-504.48C3005.734,-555.499 3002.377,-585.371 2995.664,-594.098C2989.623,-602.154 2981.231,-606.181 2970.491,-606.181L2942.296,-606.181L2942.296,-324.237Z" style="fill-rule:nonzero;"/>
        <path d="M3400.457,-720.973C3444.762,-720.973 3481.18,-717.449 3509.71,-710.4C3538.24,-703.352 3559.554,-693.114 3573.651,-679.689C3591.105,-661.564 3602.517,-636.054 3607.888,-603.161C3610.573,-587.721 3611.915,-560.533 3611.915,-521.598L3611.915,-399.758C3611.915,-323.901 3597.147,-271.204 3567.61,-241.667C3548.813,-224.213 3522.968,-213.473 3490.075,-209.445C3486.047,-208.773 3477.656,-208.27 3464.901,-207.934C3452.147,-207.599 3434.693,-207.431 3412.54,-207.431L3388.373,-207.431L3388.373,0L3231.29,0L3231.29,-720.973L3400.457,-720.973ZM3389.38,-324.237C3414.218,-324.237 3428.315,-325.579 3431.672,-328.264C3445.769,-336.32 3452.818,-369.214 3452.818,-426.945L3452.818,-504.48C3452.818,-555.499 3449.461,-585.371 3442.748,-594.098C3436.707,-602.154 3428.315,-606.181 3417.575,-606.181L3389.38,-606.181L3389.38,-324.237Z" style="fill-rule:nonzero;"/>
    </g>
    <g>
        <path d="M158.133,424.05C121.929,378.1 104.212,317.8 114.025,255.571C132.696,137.154 244.013,56.317 362.458,75.163C424.7,85.067 476.6,120.538 509.133,169.155C541.596,120.588 593.446,85.192 655.67,75.38C774.087,56.713 885.528,137.717 904.374,256.159C914.274,318.401 896.653,378.676 860.512,424.571C916.783,440.504 966.541,478.929 995.187,535.092C1049.704,641.967 1007.258,772.871 900.462,827.23C844.341,855.792 781.545,857.572 726.679,837.317C728.991,895.734 707.896,954.879 663.375,999.4C578.65,1084.121 440.979,1084.021 356.129,999.171C311.542,954.584 290.354,895.409 292.583,836.996C237.745,857.167 174.95,855.296 118.783,826.646C11.908,772.129 -30.734,641.167 23.625,534.371C52.188,478.246 101.888,439.896 158.133,424.05Z" style="fill:rgb(54,54,54);"/>
        <ellipse cx="518.95" cy="518.742" rx="285.788" ry="280.725"/>
        <path d="M162.1,638.033C105.8,622.141 56.025,583.771 27.387,527.658C-27.113,420.887 15.433,290.054 122.333,235.683C178.508,207.108 241.346,205.3 296.245,225.508C293.957,167.133 315.099,108.02 359.674,63.508C444.503,-21.196 582.27,-21.167 667.137,63.579C711.733,108.112 732.904,167.237 730.645,225.608C785.532,205.425 848.374,207.262 904.562,235.862C1011.487,290.283 1054.091,421.133 999.641,527.883C971.024,583.979 921.27,622.329 864.978,638.195C901.186,684.091 918.882,744.341 909.032,806.528C890.286,924.87 778.849,1005.711 660.328,986.936C598.049,977.074 546.128,941.653 513.599,893.086C481.087,941.64 429.182,977.036 366.907,986.869C248.399,1005.586 136.919,924.698 118.124,806.348C108.245,744.152 125.911,683.915 162.099,638.031L162.1,638.033ZM489.113,545.3L417.555,669.242C406.734,665.671 400.83,674 396.163,682.084C390.588,691.746 391.075,699.83 403.6,707.063C416.125,714.292 424.742,708.576 430.321,698.917C435.029,690.759 437.821,683.45 429.133,675.855L501.075,551.247L501.075,744.522C489.917,747.526 489.663,757.247 489.663,769.351C489.663,783.814 493.438,796.034 507.9,796.034C522.363,796.034 525.688,784.292 525.688,769.826C525.688,757.609 525.73,747.334 514.409,744.439L514.409,551.618L611.742,720.197C603.579,728.38 607.638,738.059 613.692,748.539C620.921,761.068 630.88,768.631 643.409,761.397C655.934,754.168 652.742,739.984 645.509,727.459C639.401,716.88 634.501,710.309 623.247,713.459L526.13,545.251L651.455,617.605C647.884,628.43 656.663,631.038 664.751,635.705C674.409,641.284 682.043,644.084 689.272,631.559C696.505,619.034 692.197,613.684 682.539,608.109C674.376,603.397 665.664,597.342 658.068,606.026L533.46,534.084L727.881,534.084C730.885,545.242 738.268,544.571 750.373,544.571C764.835,544.571 779.394,541.725 779.394,527.259C779.394,512.797 768.582,508.092 754.119,508.092C741.902,508.092 730.694,509.429 727.798,520.75L532.285,520.75L716.897,414.163C725.289,422.205 738.46,414.926 749.776,408.392C763.301,400.584 768.884,392.971 761.655,380.446C754.422,367.917 744.13,369.242 730.605,377.05C719.184,383.642 707.205,391.296 710.155,402.658L529.513,506.954L600.359,384.246C611.18,387.817 614.267,381.346 618.934,373.263C624.513,363.605 626.838,353.663 614.313,346.43C601.788,339.197 596.463,343.984 590.888,353.647C586.176,361.805 580.096,370.043 588.78,377.635L516.263,503.239L516.263,296.056C527.421,292.906 528.609,280.802 528.609,268.106C528.609,252.935 523.905,242.027 509.438,242.027C494.976,242.027 489.792,254.344 489.792,269.514C489.792,282.326 491.613,293.106 502.93,296.143L502.93,503.243L429.522,376.097C438.026,368.51 432.797,359.447 428.13,351.36C422.555,341.702 416.276,337.872 403.751,345.102C391.222,352.335 390.284,362.306 395.859,371.965C400.571,380.123 407.088,386.544 418.009,382.819L489.767,507.111L323.146,410.911C326.121,399.744 317.204,394.086 306.725,388.032C294.196,380.803 282.354,378.54 275.121,391.065C267.888,403.59 276.408,412.115 288.938,419.348C299.517,425.456 308.38,430.852 316.551,422.502L483.518,518.898L340.08,518.898C337.763,507.74 328.493,505.598 319.155,505.598C308.001,505.598 300.355,511.261 300.355,525.723C300.355,540.185 308.93,543.96 320.084,543.96C329.509,543.96 337.909,543.552 340.146,532.231L485.088,532.231L315.567,630.106C307.384,621.943 297.259,626.002 286.775,632.052C274.25,639.285 267.138,649.244 274.367,661.769C281.6,674.298 291.109,672.036 303.634,664.802C314.213,658.694 325.455,652.86 322.305,641.61L489.113,545.302L489.113,545.3Z" style="fill:rgb(241,255,253);"/>
    </g>
</svg>
